# xmcd
#
# Track frame offsets: 
#        150
#        16136
#        28956
#        39548
#        54892
#        74270
#        86641
#        94576
#        122302
#        127824
#        137258
#        152285
#        158603
#        170684
#        181221
#        202455
#        214051
#        227721
#        233743
#
# Disc length: 3352 seconds
#
# Revision: 1
# Processed by: cddbd v1.5.2PL0 Copyright (c) Steve Scherf et al.
# Submitted via: ExactAudioCopy v0.99pb5
#
DISCID=ec0d1613
DTITLE=Trubadurii din Transilvania - Traditional
DYEAR=2006
DGENRE=Instrumental
TTITLE0=Waltz from Viena
TTITLE1=Greek Ballad
TTITLE2=Silk Road
TTITLE3=Akrotha Lossia
TTITLE4=Puerta del Sol
TTITLE5=Ceasornicul
TTITLE6=Havana
TTITLE7=Romanian Purple
TTITLE8=La Musata Armeana
TTITLE9=Katiusha
TTITLE10=Gipsy Rapsody
TTITLE11=Odalisque Dance
TTITLE12=Streea People
TTITLE13=Irish Dance
TTITLE14=Regresso
TTITLE15=I. Cobanes
TTITLE16=Dor di Amor
TTITLE17=Galli Zelle
TTITLE18=Jis Acropolis Ta Meri
EXTD=
EXTT0=
EXTT1=
EXTT2=
EXTT3=
EXTT4=
EXTT5=
EXTT6=
EXTT7=
EXTT8=
EXTT9=
EXTT10=
EXTT11=
EXTT12=
EXTT13=
EXTT14=
EXTT15=
EXTT16=
EXTT17=
EXTT18=
PLAYORDER=
